<mxfile host="app.diagrams.net" agent="Mozilla/5.0 (Windows NT 10.0; Win64; x64) AppleWebKit/537.36 (KHTML, like Gecko) Chrome/126.0.0.0 YaBrowser/24.7.0.0 Safari/537.36" version="24.7.16">
  <diagram name="Page-1" id="929967ad-93f9-6ef4-fab6-5d389245f69c">
    <mxGraphModel grid="1" page="1" gridSize="10" guides="1" tooltips="1" connect="1" arrows="1" fold="1" pageScale="1.5" pageWidth="1169" pageHeight="826" background="none" math="0" shadow="0">
      <root>
        <mxCell id="0" style=";html=1;" />
        <mxCell id="1" style=";html=1;" parent="0" />
        <mxCell id="KqZzBV-LieR2g8B9NTwu-3" style="edgeStyle=orthogonalEdgeStyle;rounded=0;orthogonalLoop=1;jettySize=auto;html=1;exitX=1;exitY=0.3333333333333333;exitDx=0;exitDy=0;exitPerimeter=0;endArrow=none;endFill=0;" edge="1" parent="1" source="KqZzBV-LieR2g8B9NTwu-1" target="KqZzBV-LieR2g8B9NTwu-2">
          <mxGeometry relative="1" as="geometry" />
        </mxCell>
        <mxCell id="KqZzBV-LieR2g8B9NTwu-1" value="Пользователь" style="shape=umlActor;verticalLabelPosition=bottom;verticalAlign=top;html=1;" vertex="1" parent="1">
          <mxGeometry x="40" y="590" width="30" height="60" as="geometry" />
        </mxCell>
        <mxCell id="KqZzBV-LieR2g8B9NTwu-5" style="edgeStyle=orthogonalEdgeStyle;rounded=0;orthogonalLoop=1;jettySize=auto;html=1;entryX=0.5;entryY=1;entryDx=0;entryDy=0;dashed=1;endArrow=classic;endFill=1;" edge="1" parent="1" source="KqZzBV-LieR2g8B9NTwu-2" target="KqZzBV-LieR2g8B9NTwu-4">
          <mxGeometry relative="1" as="geometry" />
        </mxCell>
        <mxCell id="KqZzBV-LieR2g8B9NTwu-9" style="edgeStyle=orthogonalEdgeStyle;rounded=0;orthogonalLoop=1;jettySize=auto;html=1;exitX=0.5;exitY=1;exitDx=0;exitDy=0;entryX=0.5;entryY=0;entryDx=0;entryDy=0;endArrow=classic;endFill=1;dashed=1;" edge="1" parent="1" source="KqZzBV-LieR2g8B9NTwu-2" target="KqZzBV-LieR2g8B9NTwu-7">
          <mxGeometry relative="1" as="geometry" />
        </mxCell>
        <mxCell id="KqZzBV-LieR2g8B9NTwu-2" value="Запуск приложения" style="ellipse;whiteSpace=wrap;html=1;" vertex="1" parent="1">
          <mxGeometry x="210" y="585" width="140" height="70" as="geometry" />
        </mxCell>
        <mxCell id="KqZzBV-LieR2g8B9NTwu-4" value="Авторизация" style="ellipse;whiteSpace=wrap;html=1;" vertex="1" parent="1">
          <mxGeometry x="130" y="410" width="140" height="70" as="geometry" />
        </mxCell>
        <mxCell id="KqZzBV-LieR2g8B9NTwu-6" value="Включает" style="text;html=1;align=center;verticalAlign=middle;resizable=0;points=[];autosize=1;strokeColor=none;fillColor=none;" vertex="1" parent="1">
          <mxGeometry x="210" y="500" width="80" height="30" as="geometry" />
        </mxCell>
        <mxCell id="KqZzBV-LieR2g8B9NTwu-7" value="Аутентификация" style="ellipse;whiteSpace=wrap;html=1;" vertex="1" parent="1">
          <mxGeometry x="120" y="770" width="140" height="70" as="geometry" />
        </mxCell>
        <mxCell id="KqZzBV-LieR2g8B9NTwu-10" value="Включает" style="text;html=1;align=center;verticalAlign=middle;resizable=0;points=[];autosize=1;strokeColor=none;fillColor=none;" vertex="1" parent="1">
          <mxGeometry x="190" y="677" width="80" height="30" as="geometry" />
        </mxCell>
        <mxCell id="KqZzBV-LieR2g8B9NTwu-11" value="Оформить отпуск" style="ellipse;whiteSpace=wrap;html=1;" vertex="1" parent="1">
          <mxGeometry x="580" y="585" width="140" height="70" as="geometry" />
        </mxCell>
        <mxCell id="KqZzBV-LieR2g8B9NTwu-12" style="edgeStyle=orthogonalEdgeStyle;rounded=0;orthogonalLoop=1;jettySize=auto;html=1;entryX=1;entryY=0.5;entryDx=0;entryDy=0;dashed=1;endArrow=classic;endFill=1;" edge="1" parent="1" source="KqZzBV-LieR2g8B9NTwu-11" target="KqZzBV-LieR2g8B9NTwu-2">
          <mxGeometry relative="1" as="geometry">
            <mxPoint x="470" y="640" as="sourcePoint" />
            <mxPoint x="470" y="585" as="targetPoint" />
            <Array as="points" />
          </mxGeometry>
        </mxCell>
        <mxCell id="KqZzBV-LieR2g8B9NTwu-13" value="Расширяет" style="text;html=1;align=center;verticalAlign=middle;resizable=0;points=[];autosize=1;strokeColor=none;fillColor=none;" vertex="1" parent="1">
          <mxGeometry x="480" y="585" width="80" height="30" as="geometry" />
        </mxCell>
        <mxCell id="KqZzBV-LieR2g8B9NTwu-15" value="Взять отгул" style="ellipse;whiteSpace=wrap;html=1;" vertex="1" parent="1">
          <mxGeometry x="520" y="770" width="140" height="70" as="geometry" />
        </mxCell>
        <mxCell id="KqZzBV-LieR2g8B9NTwu-16" style="rounded=0;orthogonalLoop=1;jettySize=auto;html=1;entryX=0.951;entryY=0.729;entryDx=0;entryDy=0;dashed=1;endArrow=classic;endFill=1;entryPerimeter=0;exitX=0.049;exitY=0.302;exitDx=0;exitDy=0;exitPerimeter=0;" edge="1" parent="1" source="KqZzBV-LieR2g8B9NTwu-15" target="KqZzBV-LieR2g8B9NTwu-2">
          <mxGeometry relative="1" as="geometry">
            <mxPoint x="580" y="690" as="sourcePoint" />
            <mxPoint x="440" y="690" as="targetPoint" />
          </mxGeometry>
        </mxCell>
        <mxCell id="KqZzBV-LieR2g8B9NTwu-18" value="Отправка на почту пользователя сообщения с оповещением о начинающемся отпуске через 3 дня" style="ellipse;whiteSpace=wrap;html=1;" vertex="1" parent="1">
          <mxGeometry x="860" y="477.5" width="180" height="115" as="geometry" />
        </mxCell>
        <mxCell id="KqZzBV-LieR2g8B9NTwu-19" style="rounded=0;orthogonalLoop=1;jettySize=auto;html=1;entryX=0;entryY=0.5;entryDx=0;entryDy=0;dashed=1;endArrow=classic;endFill=1;exitX=1;exitY=0.5;exitDx=0;exitDy=0;" edge="1" parent="1" source="KqZzBV-LieR2g8B9NTwu-11" target="KqZzBV-LieR2g8B9NTwu-18">
          <mxGeometry relative="1" as="geometry">
            <mxPoint x="594" y="785" as="sourcePoint" />
            <mxPoint x="440" y="720" as="targetPoint" />
          </mxGeometry>
        </mxCell>
        <mxCell id="KqZzBV-LieR2g8B9NTwu-20" value="Включает" style="text;html=1;align=center;verticalAlign=middle;resizable=0;points=[];autosize=1;strokeColor=none;fillColor=none;rotation=-30;" vertex="1" parent="1">
          <mxGeometry x="750" y="546" width="80" height="30" as="geometry" />
        </mxCell>
        <mxCell id="KqZzBV-LieR2g8B9NTwu-21" value="Оформить больничный" style="ellipse;whiteSpace=wrap;html=1;" vertex="1" parent="1">
          <mxGeometry x="510" y="420" width="140" height="70" as="geometry" />
        </mxCell>
        <mxCell id="KqZzBV-LieR2g8B9NTwu-22" style="rounded=0;orthogonalLoop=1;jettySize=auto;html=1;entryX=0.96;entryY=0.257;entryDx=0;entryDy=0;dashed=1;endArrow=classic;endFill=1;exitX=0.002;exitY=0.62;exitDx=0;exitDy=0;entryPerimeter=0;exitPerimeter=0;" edge="1" parent="1" source="KqZzBV-LieR2g8B9NTwu-21" target="KqZzBV-LieR2g8B9NTwu-2">
          <mxGeometry relative="1" as="geometry">
            <mxPoint x="580" y="530" as="sourcePoint" />
            <mxPoint x="440" y="530" as="targetPoint" />
          </mxGeometry>
        </mxCell>
        <mxCell id="KqZzBV-LieR2g8B9NTwu-23" value="Расширяет" style="text;html=1;align=center;verticalAlign=middle;resizable=0;points=[];autosize=1;strokeColor=none;fillColor=none;rotation=-35;" vertex="1" parent="1">
          <mxGeometry x="385" y="506" width="80" height="30" as="geometry" />
        </mxCell>
        <mxCell id="KqZzBV-LieR2g8B9NTwu-24" value="Просмотр банка отпускных дней" style="ellipse;whiteSpace=wrap;html=1;" vertex="1" parent="1">
          <mxGeometry x="690" y="430" width="140" height="70" as="geometry" />
        </mxCell>
        <mxCell id="KqZzBV-LieR2g8B9NTwu-25" style="rounded=0;orthogonalLoop=1;jettySize=auto;html=1;entryX=0.221;entryY=0.904;entryDx=0;entryDy=0;dashed=1;endArrow=classic;endFill=1;exitX=0.758;exitY=0.079;exitDx=0;exitDy=0;entryPerimeter=0;exitPerimeter=0;" edge="1" parent="1" source="KqZzBV-LieR2g8B9NTwu-11" target="KqZzBV-LieR2g8B9NTwu-24">
          <mxGeometry relative="1" as="geometry">
            <mxPoint x="580" y="560" as="sourcePoint" />
            <mxPoint x="690" y="560" as="targetPoint" />
          </mxGeometry>
        </mxCell>
        <mxCell id="KqZzBV-LieR2g8B9NTwu-26" value="Включает" style="text;html=1;align=center;verticalAlign=middle;resizable=0;points=[];autosize=1;strokeColor=none;fillColor=none;rotation=-70;" vertex="1" parent="1">
          <mxGeometry x="650" y="530" width="80" height="30" as="geometry" />
        </mxCell>
        <mxCell id="KqZzBV-LieR2g8B9NTwu-27" style="rounded=0;orthogonalLoop=1;jettySize=auto;html=1;entryX=0.972;entryY=0.326;entryDx=0;entryDy=0;dashed=1;endArrow=classic;endFill=1;exitX=0.036;exitY=0.757;exitDx=0;exitDy=0;entryPerimeter=0;exitPerimeter=0;" edge="1" parent="1" source="KqZzBV-LieR2g8B9NTwu-24" target="KqZzBV-LieR2g8B9NTwu-2">
          <mxGeometry relative="1" as="geometry">
            <mxPoint x="480" y="465" as="sourcePoint" />
            <mxPoint x="414" y="613" as="targetPoint" />
          </mxGeometry>
        </mxCell>
        <mxCell id="KqZzBV-LieR2g8B9NTwu-28" value="Расширяет" style="text;html=1;align=center;verticalAlign=middle;resizable=0;points=[];autosize=1;strokeColor=none;fillColor=none;rotation=-25;" vertex="1" parent="1">
          <mxGeometry x="470" y="520" width="80" height="30" as="geometry" />
        </mxCell>
        <mxCell id="KqZzBV-LieR2g8B9NTwu-29" value="Просмотр баланса отгулов" style="ellipse;whiteSpace=wrap;html=1;" vertex="1" parent="1">
          <mxGeometry x="390" y="880" width="140" height="70" as="geometry" />
        </mxCell>
        <mxCell id="KqZzBV-LieR2g8B9NTwu-30" style="rounded=0;orthogonalLoop=1;jettySize=auto;html=1;dashed=1;endArrow=classic;endFill=1;exitX=0.021;exitY=0.771;exitDx=0;exitDy=0;exitPerimeter=0;" edge="1" parent="1" source="KqZzBV-LieR2g8B9NTwu-15" target="KqZzBV-LieR2g8B9NTwu-29">
          <mxGeometry relative="1" as="geometry">
            <mxPoint x="630" y="830" as="sourcePoint" />
            <mxPoint x="740" y="830" as="targetPoint" />
          </mxGeometry>
        </mxCell>
        <mxCell id="KqZzBV-LieR2g8B9NTwu-31" value="Включает" style="text;html=1;align=center;verticalAlign=middle;resizable=0;points=[];autosize=1;strokeColor=none;fillColor=none;rotation=-60;" vertex="1" parent="1">
          <mxGeometry x="450" y="810" width="80" height="30" as="geometry" />
        </mxCell>
        <mxCell id="KqZzBV-LieR2g8B9NTwu-32" style="rounded=0;orthogonalLoop=1;jettySize=auto;html=1;dashed=1;endArrow=classic;endFill=1;exitX=0.271;exitY=0.029;exitDx=0;exitDy=0;exitPerimeter=0;entryX=0.7;entryY=0.986;entryDx=0;entryDy=0;entryPerimeter=0;" edge="1" parent="1" source="KqZzBV-LieR2g8B9NTwu-29" target="KqZzBV-LieR2g8B9NTwu-2">
          <mxGeometry relative="1" as="geometry">
            <mxPoint x="330" y="850" as="sourcePoint" />
            <mxPoint x="279" y="928" as="targetPoint" />
          </mxGeometry>
        </mxCell>
        <mxCell id="KqZzBV-LieR2g8B9NTwu-33" value="Расширяет" style="text;html=1;align=center;verticalAlign=middle;resizable=0;points=[];autosize=1;strokeColor=none;fillColor=none;rotation=60;" vertex="1" parent="1">
          <mxGeometry x="360" y="760" width="80" height="30" as="geometry" />
        </mxCell>
        <mxCell id="KqZzBV-LieR2g8B9NTwu-35" value="Просмотр календаря" style="ellipse;whiteSpace=wrap;html=1;" vertex="1" parent="1">
          <mxGeometry x="290" y="380" width="140" height="70" as="geometry" />
        </mxCell>
        <mxCell id="KqZzBV-LieR2g8B9NTwu-36" style="rounded=0;orthogonalLoop=1;jettySize=auto;html=1;dashed=1;endArrow=classic;endFill=1;exitX=0.421;exitY=1.014;exitDx=0;exitDy=0;exitPerimeter=0;" edge="1" parent="1" source="KqZzBV-LieR2g8B9NTwu-35" target="KqZzBV-LieR2g8B9NTwu-2">
          <mxGeometry relative="1" as="geometry">
            <mxPoint x="520" y="473" as="sourcePoint" />
            <mxPoint x="354" y="613" as="targetPoint" />
          </mxGeometry>
        </mxCell>
        <mxCell id="KqZzBV-LieR2g8B9NTwu-37" value="Расширяет" style="text;html=1;align=center;verticalAlign=middle;resizable=0;points=[];autosize=1;strokeColor=none;fillColor=none;rotation=0;" vertex="1" parent="1">
          <mxGeometry x="330" y="476" width="80" height="30" as="geometry" />
        </mxCell>
        <mxCell id="KqZzBV-LieR2g8B9NTwu-38" value="Просмотреть, кто на данный момент находится не на работе по определённой причине" style="ellipse;whiteSpace=wrap;html=1;" vertex="1" parent="1">
          <mxGeometry x="485" y="300" width="205" height="100" as="geometry" />
        </mxCell>
        <mxCell id="KqZzBV-LieR2g8B9NTwu-44" style="rounded=0;orthogonalLoop=1;jettySize=auto;html=1;dashed=1;endArrow=classic;endFill=1;exitX=1.029;exitY=0.414;exitDx=0;exitDy=0;entryX=0.306;entryY=1;entryDx=0;entryDy=0;entryPerimeter=0;exitPerimeter=0;" edge="1" parent="1" source="KqZzBV-LieR2g8B9NTwu-35" target="KqZzBV-LieR2g8B9NTwu-38">
          <mxGeometry relative="1" as="geometry">
            <mxPoint x="359" y="461" as="sourcePoint" />
            <mxPoint x="304" y="596" as="targetPoint" />
          </mxGeometry>
        </mxCell>
        <mxCell id="KqZzBV-LieR2g8B9NTwu-45" value="Включает" style="text;html=1;align=center;verticalAlign=middle;resizable=0;points=[];autosize=1;strokeColor=none;fillColor=none;rotation=0;" vertex="1" parent="1">
          <mxGeometry x="430" y="380" width="80" height="30" as="geometry" />
        </mxCell>
        <mxCell id="KqZzBV-LieR2g8B9NTwu-46" value="Подтверждён" style="ellipse;whiteSpace=wrap;html=1;" vertex="1" parent="1">
          <mxGeometry x="820" y="710" width="140" height="70" as="geometry" />
        </mxCell>
        <mxCell id="KqZzBV-LieR2g8B9NTwu-47" style="rounded=0;orthogonalLoop=1;jettySize=auto;html=1;dashed=1;endArrow=classic;endFill=1;exitX=0.5;exitY=0;exitDx=0;exitDy=0;entryX=0.804;entryY=0.919;entryDx=0;entryDy=0;entryPerimeter=0;" edge="1" parent="1" source="KqZzBV-LieR2g8B9NTwu-46" target="KqZzBV-LieR2g8B9NTwu-11">
          <mxGeometry relative="1" as="geometry">
            <mxPoint x="730" y="650" as="sourcePoint" />
            <mxPoint x="720" y="630" as="targetPoint" />
          </mxGeometry>
        </mxCell>
        <mxCell id="KqZzBV-LieR2g8B9NTwu-48" value="Расширяет" style="text;html=1;align=center;verticalAlign=middle;resizable=0;points=[];autosize=1;strokeColor=none;fillColor=none;rotation=-65;" vertex="1" parent="1">
          <mxGeometry x="720" y="650" width="80" height="30" as="geometry" />
        </mxCell>
        <mxCell id="KqZzBV-LieR2g8B9NTwu-49" value="Отклонён" style="ellipse;whiteSpace=wrap;html=1;" vertex="1" parent="1">
          <mxGeometry x="900" y="637" width="140" height="70" as="geometry" />
        </mxCell>
        <mxCell id="KqZzBV-LieR2g8B9NTwu-50" style="rounded=0;orthogonalLoop=1;jettySize=auto;html=1;dashed=1;endArrow=classic;endFill=1;exitX=0;exitY=0.5;exitDx=0;exitDy=0;entryX=0.837;entryY=0.854;entryDx=0;entryDy=0;entryPerimeter=0;" edge="1" parent="1" source="KqZzBV-LieR2g8B9NTwu-49" target="KqZzBV-LieR2g8B9NTwu-11">
          <mxGeometry relative="1" as="geometry">
            <mxPoint x="815" y="687" as="sourcePoint" />
            <mxPoint x="705" y="675" as="targetPoint" />
          </mxGeometry>
        </mxCell>
        <mxCell id="KqZzBV-LieR2g8B9NTwu-63" style="rounded=0;orthogonalLoop=1;jettySize=auto;html=1;dashed=1;endArrow=classic;endFill=1;exitX=1;exitY=0.5;exitDx=0;exitDy=0;" edge="1" parent="1" source="KqZzBV-LieR2g8B9NTwu-15" target="KqZzBV-LieR2g8B9NTwu-46">
          <mxGeometry relative="1" as="geometry">
            <mxPoint x="860" y="875" as="sourcePoint" />
            <mxPoint x="359" y="639" as="targetPoint" />
          </mxGeometry>
        </mxCell>
        <mxCell id="KqZzBV-LieR2g8B9NTwu-64" style="rounded=0;orthogonalLoop=1;jettySize=auto;html=1;dashed=1;endArrow=classic;endFill=1;exitX=0.94;exitY=0.264;exitDx=0;exitDy=0;exitPerimeter=0;entryX=0;entryY=0.629;entryDx=0;entryDy=0;entryPerimeter=0;" edge="1" parent="1" source="KqZzBV-LieR2g8B9NTwu-15" target="KqZzBV-LieR2g8B9NTwu-49">
          <mxGeometry relative="1" as="geometry">
            <mxPoint x="670" y="815" as="sourcePoint" />
            <mxPoint x="838" y="771" as="targetPoint" />
          </mxGeometry>
        </mxCell>
        <mxCell id="KqZzBV-LieR2g8B9NTwu-65" value="Расширяет" style="text;html=1;align=center;verticalAlign=middle;resizable=0;points=[];autosize=1;strokeColor=none;fillColor=none;rotation=60;" vertex="1" parent="1">
          <mxGeometry x="720" y="750" width="80" height="30" as="geometry" />
        </mxCell>
      </root>
    </mxGraphModel>
  </diagram>
</mxfile>
